<mxfile host="app.diagrams.net" modified="2023-07-29T07:51:47.888Z" agent="Mozilla/5.0 (Macintosh; Intel Mac OS X 10_15_7) AppleWebKit/537.36 (KHTML, like Gecko) Chrome/115.0.0.0 Safari/537.36" etag="73wbz1hBLbx6AVcEurln" version="21.6.1" type="github">
  <diagram name="페이지-1" id="fcATBufDSYXI7EW5FcmO">
    <mxGraphModel dx="1774" dy="1174" grid="1" gridSize="10" guides="1" tooltips="1" connect="1" arrows="1" fold="1" page="1" pageScale="1" pageWidth="827" pageHeight="1169" math="0" shadow="0">
      <root>
        <mxCell id="0" />
        <mxCell id="1" parent="0" />
        <mxCell id="5FU5wbVfuIOVZ-LXfCbl-67" value="" style="rounded=0;whiteSpace=wrap;html=1;fillColor=none;strokeWidth=1;" vertex="1" parent="1">
          <mxGeometry x="440" y="110" width="360" height="370" as="geometry" />
        </mxCell>
        <mxCell id="5FU5wbVfuIOVZ-LXfCbl-30" value="" style="rounded=0;whiteSpace=wrap;html=1;fillColor=none;strokeWidth=1;" vertex="1" parent="1">
          <mxGeometry x="40" y="110" width="360" height="370" as="geometry" />
        </mxCell>
        <mxCell id="5FU5wbVfuIOVZ-LXfCbl-38" value="" style="rounded=0;whiteSpace=wrap;html=1;fillColor=none;strokeWidth=2;" vertex="1" parent="1">
          <mxGeometry x="40" y="560" width="400" height="350" as="geometry" />
        </mxCell>
        <mxCell id="5FU5wbVfuIOVZ-LXfCbl-27" style="edgeStyle=orthogonalEdgeStyle;rounded=0;orthogonalLoop=1;jettySize=auto;html=1;" edge="1" parent="1" source="5FU5wbVfuIOVZ-LXfCbl-4" target="5FU5wbVfuIOVZ-LXfCbl-5">
          <mxGeometry relative="1" as="geometry">
            <mxPoint x="280" y="221" as="targetPoint" />
            <Array as="points">
              <mxPoint x="180" y="277" />
              <mxPoint x="180" y="220" />
            </Array>
          </mxGeometry>
        </mxCell>
        <mxCell id="5FU5wbVfuIOVZ-LXfCbl-28" style="edgeStyle=orthogonalEdgeStyle;rounded=0;orthogonalLoop=1;jettySize=auto;html=1;" edge="1" parent="1" source="5FU5wbVfuIOVZ-LXfCbl-4" target="5FU5wbVfuIOVZ-LXfCbl-25">
          <mxGeometry relative="1" as="geometry">
            <Array as="points">
              <mxPoint x="180" y="277" />
              <mxPoint x="180" y="340" />
            </Array>
          </mxGeometry>
        </mxCell>
        <mxCell id="5FU5wbVfuIOVZ-LXfCbl-4" value="Service A" style="outlineConnect=0;dashed=0;verticalLabelPosition=bottom;verticalAlign=top;align=center;html=1;shape=mxgraph.aws3.instance;fillColor=#F58534;gradientColor=none;" vertex="1" parent="1">
          <mxGeometry x="77" y="245" width="60" height="63" as="geometry" />
        </mxCell>
        <mxCell id="5FU5wbVfuIOVZ-LXfCbl-5" value="Service B&lt;br&gt;10.0.0.1:80" style="outlineConnect=0;dashed=0;verticalLabelPosition=bottom;verticalAlign=top;align=center;html=1;shape=mxgraph.aws3.instance;fillColor=#F58534;gradientColor=none;" vertex="1" parent="1">
          <mxGeometry x="300" y="190" width="60" height="63" as="geometry" />
        </mxCell>
        <mxCell id="5FU5wbVfuIOVZ-LXfCbl-25" value="Service C&lt;br&gt;10.0.1.3:82" style="outlineConnect=0;dashed=0;verticalLabelPosition=bottom;verticalAlign=top;align=center;html=1;shape=mxgraph.aws3.instance;fillColor=#F58534;gradientColor=none;" vertex="1" parent="1">
          <mxGeometry x="300" y="308" width="60" height="63" as="geometry" />
        </mxCell>
        <mxCell id="5FU5wbVfuIOVZ-LXfCbl-48" style="edgeStyle=orthogonalEdgeStyle;rounded=0;orthogonalLoop=1;jettySize=auto;html=1;" edge="1" parent="1" source="5FU5wbVfuIOVZ-LXfCbl-29" target="5FU5wbVfuIOVZ-LXfCbl-34">
          <mxGeometry relative="1" as="geometry">
            <Array as="points">
              <mxPoint x="150" y="715" />
              <mxPoint x="150" y="715" />
            </Array>
          </mxGeometry>
        </mxCell>
        <mxCell id="5FU5wbVfuIOVZ-LXfCbl-29" value="" style="sketch=0;points=[[0,0,0],[0.25,0,0],[0.5,0,0],[0.75,0,0],[1,0,0],[0,1,0],[0.25,1,0],[0.5,1,0],[0.75,1,0],[1,1,0],[0,0.25,0],[0,0.5,0],[0,0.75,0],[1,0.25,0],[1,0.5,0],[1,0.75,0]];outlineConnect=0;fontColor=#232F3E;gradientColor=#945DF2;gradientDirection=north;fillColor=#5A30B5;strokeColor=#ffffff;dashed=0;verticalLabelPosition=bottom;verticalAlign=top;align=center;html=1;fontSize=12;fontStyle=0;aspect=fixed;shape=mxgraph.aws4.resourceIcon;resIcon=mxgraph.aws4.cloud_map;" vertex="1" parent="1">
          <mxGeometry x="100" y="600" width="70" height="70" as="geometry" />
        </mxCell>
        <mxCell id="5FU5wbVfuIOVZ-LXfCbl-43" style="edgeStyle=orthogonalEdgeStyle;rounded=0;orthogonalLoop=1;jettySize=auto;html=1;" edge="1" parent="1" source="5FU5wbVfuIOVZ-LXfCbl-34" target="5FU5wbVfuIOVZ-LXfCbl-29">
          <mxGeometry relative="1" as="geometry">
            <Array as="points">
              <mxPoint x="120" y="715" />
              <mxPoint x="120" y="715" />
            </Array>
          </mxGeometry>
        </mxCell>
        <mxCell id="5FU5wbVfuIOVZ-LXfCbl-51" style="edgeStyle=orthogonalEdgeStyle;rounded=0;orthogonalLoop=1;jettySize=auto;html=1;" edge="1" parent="1" source="5FU5wbVfuIOVZ-LXfCbl-34">
          <mxGeometry relative="1" as="geometry">
            <mxPoint x="330" y="831.5172413793102" as="targetPoint" />
            <Array as="points">
              <mxPoint x="180" y="832" />
              <mxPoint x="180" y="832" />
            </Array>
          </mxGeometry>
        </mxCell>
        <mxCell id="5FU5wbVfuIOVZ-LXfCbl-34" value="Service A" style="outlineConnect=0;dashed=0;verticalLabelPosition=bottom;verticalAlign=top;align=center;html=1;shape=mxgraph.aws3.instance;fillColor=#F58534;gradientColor=none;" vertex="1" parent="1">
          <mxGeometry x="105" y="800" width="60" height="63" as="geometry" />
        </mxCell>
        <mxCell id="5FU5wbVfuIOVZ-LXfCbl-44" style="edgeStyle=orthogonalEdgeStyle;rounded=0;orthogonalLoop=1;jettySize=auto;html=1;" edge="1" parent="1" source="5FU5wbVfuIOVZ-LXfCbl-35" target="5FU5wbVfuIOVZ-LXfCbl-29">
          <mxGeometry relative="1" as="geometry" />
        </mxCell>
        <mxCell id="5FU5wbVfuIOVZ-LXfCbl-35" value="Service B&lt;br&gt;10.0.0.1:80" style="outlineConnect=0;dashed=0;verticalLabelPosition=bottom;verticalAlign=top;align=center;html=1;shape=mxgraph.aws3.instance;fillColor=#F58534;gradientColor=none;" vertex="1" parent="1">
          <mxGeometry x="330" y="603.5" width="60" height="63" as="geometry" />
        </mxCell>
        <mxCell id="5FU5wbVfuIOVZ-LXfCbl-45" style="edgeStyle=orthogonalEdgeStyle;rounded=0;orthogonalLoop=1;jettySize=auto;html=1;" edge="1" parent="1" source="5FU5wbVfuIOVZ-LXfCbl-36" target="5FU5wbVfuIOVZ-LXfCbl-29">
          <mxGeometry relative="1" as="geometry">
            <Array as="points">
              <mxPoint x="280" y="732" />
              <mxPoint x="280" y="635" />
            </Array>
          </mxGeometry>
        </mxCell>
        <mxCell id="5FU5wbVfuIOVZ-LXfCbl-36" value="Service&amp;nbsp;C&lt;br&gt;10.0.1.3:82" style="outlineConnect=0;dashed=0;verticalLabelPosition=bottom;verticalAlign=top;align=center;html=1;shape=mxgraph.aws3.instance;fillColor=#F58534;gradientColor=none;" vertex="1" parent="1">
          <mxGeometry x="330" y="800" width="60" height="63" as="geometry" />
        </mxCell>
        <mxCell id="5FU5wbVfuIOVZ-LXfCbl-40" value="10.0.0.1:80" style="text;strokeColor=none;fillColor=none;align=left;verticalAlign=middle;spacingLeft=4;spacingRight=4;overflow=hidden;points=[[0,0.5],[1,0.5]];portConstraint=eastwest;rotatable=0;whiteSpace=wrap;html=1;" vertex="1" parent="1">
          <mxGeometry x="180" y="190" width="80" height="30" as="geometry" />
        </mxCell>
        <mxCell id="5FU5wbVfuIOVZ-LXfCbl-42" value="10.0.1.3:82" style="text;strokeColor=none;fillColor=none;align=left;verticalAlign=middle;spacingLeft=4;spacingRight=4;overflow=hidden;points=[[0,0.5],[1,0.5]];portConstraint=eastwest;rotatable=0;whiteSpace=wrap;html=1;" vertex="1" parent="1">
          <mxGeometry x="180" y="308" width="80" height="30" as="geometry" />
        </mxCell>
        <mxCell id="5FU5wbVfuIOVZ-LXfCbl-47" value="10.0.1.3:82" style="text;strokeColor=none;fillColor=none;align=left;verticalAlign=middle;spacingLeft=4;spacingRight=4;overflow=hidden;points=[[0,0.5],[1,0.5]];portConstraint=eastwest;rotatable=0;whiteSpace=wrap;html=1;" vertex="1" parent="1">
          <mxGeometry x="150" y="700" width="90" height="30" as="geometry" />
        </mxCell>
        <mxCell id="5FU5wbVfuIOVZ-LXfCbl-50" value="Service C" style="text;strokeColor=none;fillColor=none;align=left;verticalAlign=middle;spacingLeft=4;spacingRight=4;overflow=hidden;points=[[0,0.5],[1,0.5]];portConstraint=eastwest;rotatable=0;whiteSpace=wrap;html=1;" vertex="1" parent="1">
          <mxGeometry x="54" y="700" width="90" height="30" as="geometry" />
        </mxCell>
        <mxCell id="5FU5wbVfuIOVZ-LXfCbl-68" style="edgeStyle=orthogonalEdgeStyle;rounded=0;orthogonalLoop=1;jettySize=auto;html=1;" edge="1" source="5FU5wbVfuIOVZ-LXfCbl-70" target="5FU5wbVfuIOVZ-LXfCbl-71" parent="1">
          <mxGeometry relative="1" as="geometry">
            <mxPoint x="680" y="221" as="targetPoint" />
            <Array as="points">
              <mxPoint x="580" y="277" />
              <mxPoint x="580" y="220" />
            </Array>
          </mxGeometry>
        </mxCell>
        <mxCell id="5FU5wbVfuIOVZ-LXfCbl-69" style="edgeStyle=orthogonalEdgeStyle;rounded=0;orthogonalLoop=1;jettySize=auto;html=1;" edge="1" source="5FU5wbVfuIOVZ-LXfCbl-70" target="5FU5wbVfuIOVZ-LXfCbl-72" parent="1">
          <mxGeometry relative="1" as="geometry">
            <Array as="points">
              <mxPoint x="580" y="277" />
              <mxPoint x="580" y="340" />
            </Array>
          </mxGeometry>
        </mxCell>
        <mxCell id="5FU5wbVfuIOVZ-LXfCbl-70" value="Service A" style="outlineConnect=0;dashed=0;verticalLabelPosition=bottom;verticalAlign=top;align=center;html=1;shape=mxgraph.aws3.instance;fillColor=#F58534;gradientColor=none;" vertex="1" parent="1">
          <mxGeometry x="477" y="245" width="60" height="63" as="geometry" />
        </mxCell>
        <mxCell id="5FU5wbVfuIOVZ-LXfCbl-71" value="Service B&lt;br&gt;10.0.0.1:80" style="outlineConnect=0;dashed=0;verticalLabelPosition=bottom;verticalAlign=top;align=center;html=1;shape=mxgraph.aws3.instance;fillColor=#F58534;gradientColor=none;" vertex="1" parent="1">
          <mxGeometry x="700" y="190" width="60" height="63" as="geometry" />
        </mxCell>
        <mxCell id="5FU5wbVfuIOVZ-LXfCbl-72" value="Service C&lt;br&gt;10.0.11.5:82" style="outlineConnect=0;dashed=0;verticalLabelPosition=bottom;verticalAlign=top;align=center;html=1;shape=mxgraph.aws3.instance;fillColor=#F58534;gradientColor=none;" vertex="1" parent="1">
          <mxGeometry x="700" y="308" width="60" height="63" as="geometry" />
        </mxCell>
        <mxCell id="5FU5wbVfuIOVZ-LXfCbl-73" value="10.0.0.1:80" style="text;strokeColor=none;fillColor=none;align=left;verticalAlign=middle;spacingLeft=4;spacingRight=4;overflow=hidden;points=[[0,0.5],[1,0.5]];portConstraint=eastwest;rotatable=0;whiteSpace=wrap;html=1;" vertex="1" parent="1">
          <mxGeometry x="580" y="190" width="80" height="30" as="geometry" />
        </mxCell>
        <mxCell id="5FU5wbVfuIOVZ-LXfCbl-74" value="10.0.1.3:82" style="text;strokeColor=none;fillColor=none;align=left;verticalAlign=middle;spacingLeft=4;spacingRight=4;overflow=hidden;points=[[0,0.5],[1,0.5]];portConstraint=eastwest;rotatable=0;whiteSpace=wrap;html=1;" vertex="1" parent="1">
          <mxGeometry x="580" y="308" width="80" height="30" as="geometry" />
        </mxCell>
        <mxCell id="5FU5wbVfuIOVZ-LXfCbl-65" value="" style="shape=mxgraph.mockup.markup.redX;fillColor=#ff0000;html=1;shadow=0;whiteSpace=wrap;strokeColor=none;" vertex="1" parent="1">
          <mxGeometry x="660" y="324.5" width="30" height="30" as="geometry" />
        </mxCell>
        <mxCell id="5FU5wbVfuIOVZ-LXfCbl-64" value="" style="sketch=0;pointerEvents=1;shadow=0;dashed=0;html=1;strokeColor=none;labelPosition=center;verticalLabelPosition=bottom;verticalAlign=top;align=center;fillColor=#505050;shape=mxgraph.mscae.intune.update" vertex="1" parent="1">
          <mxGeometry x="740" y="294.5" width="28.8" height="30" as="geometry" />
        </mxCell>
        <mxCell id="5FU5wbVfuIOVZ-LXfCbl-76" value="Registry" style="text;strokeColor=none;fillColor=none;align=left;verticalAlign=middle;spacingLeft=4;spacingRight=4;overflow=hidden;points=[[0,0.5],[1,0.5]];portConstraint=eastwest;rotatable=0;whiteSpace=wrap;html=1;" vertex="1" parent="1">
          <mxGeometry x="190" y="603.5" width="80" height="30" as="geometry" />
        </mxCell>
        <mxCell id="5FU5wbVfuIOVZ-LXfCbl-77" value="" style="rounded=0;whiteSpace=wrap;html=1;fillColor=none;strokeWidth=2;" vertex="1" parent="1">
          <mxGeometry x="480" y="560" width="400" height="350" as="geometry" />
        </mxCell>
        <mxCell id="5FU5wbVfuIOVZ-LXfCbl-78" style="edgeStyle=orthogonalEdgeStyle;rounded=0;orthogonalLoop=1;jettySize=auto;html=1;" edge="1" source="5FU5wbVfuIOVZ-LXfCbl-79" target="5FU5wbVfuIOVZ-LXfCbl-82" parent="1">
          <mxGeometry relative="1" as="geometry">
            <Array as="points">
              <mxPoint x="590" y="715" />
              <mxPoint x="590" y="715" />
            </Array>
          </mxGeometry>
        </mxCell>
        <mxCell id="5FU5wbVfuIOVZ-LXfCbl-79" value="" style="sketch=0;points=[[0,0,0],[0.25,0,0],[0.5,0,0],[0.75,0,0],[1,0,0],[0,1,0],[0.25,1,0],[0.5,1,0],[0.75,1,0],[1,1,0],[0,0.25,0],[0,0.5,0],[0,0.75,0],[1,0.25,0],[1,0.5,0],[1,0.75,0]];outlineConnect=0;fontColor=#232F3E;gradientColor=#945DF2;gradientDirection=north;fillColor=#5A30B5;strokeColor=#ffffff;dashed=0;verticalLabelPosition=bottom;verticalAlign=top;align=center;html=1;fontSize=12;fontStyle=0;aspect=fixed;shape=mxgraph.aws4.resourceIcon;resIcon=mxgraph.aws4.cloud_map;" vertex="1" parent="1">
          <mxGeometry x="540" y="600" width="70" height="70" as="geometry" />
        </mxCell>
        <mxCell id="5FU5wbVfuIOVZ-LXfCbl-80" style="edgeStyle=orthogonalEdgeStyle;rounded=0;orthogonalLoop=1;jettySize=auto;html=1;" edge="1" source="5FU5wbVfuIOVZ-LXfCbl-82" target="5FU5wbVfuIOVZ-LXfCbl-79" parent="1">
          <mxGeometry relative="1" as="geometry">
            <Array as="points">
              <mxPoint x="560" y="715" />
              <mxPoint x="560" y="715" />
            </Array>
          </mxGeometry>
        </mxCell>
        <mxCell id="5FU5wbVfuIOVZ-LXfCbl-81" style="edgeStyle=orthogonalEdgeStyle;rounded=0;orthogonalLoop=1;jettySize=auto;html=1;" edge="1" source="5FU5wbVfuIOVZ-LXfCbl-82" parent="1">
          <mxGeometry relative="1" as="geometry">
            <mxPoint x="770" y="831.5172413793102" as="targetPoint" />
            <Array as="points">
              <mxPoint x="620" y="832" />
              <mxPoint x="620" y="832" />
            </Array>
          </mxGeometry>
        </mxCell>
        <mxCell id="5FU5wbVfuIOVZ-LXfCbl-82" value="Service A" style="outlineConnect=0;dashed=0;verticalLabelPosition=bottom;verticalAlign=top;align=center;html=1;shape=mxgraph.aws3.instance;fillColor=#F58534;gradientColor=none;" vertex="1" parent="1">
          <mxGeometry x="545" y="800" width="60" height="63" as="geometry" />
        </mxCell>
        <mxCell id="5FU5wbVfuIOVZ-LXfCbl-83" style="edgeStyle=orthogonalEdgeStyle;rounded=0;orthogonalLoop=1;jettySize=auto;html=1;" edge="1" source="5FU5wbVfuIOVZ-LXfCbl-84" target="5FU5wbVfuIOVZ-LXfCbl-79" parent="1">
          <mxGeometry relative="1" as="geometry" />
        </mxCell>
        <mxCell id="5FU5wbVfuIOVZ-LXfCbl-84" value="Service B&lt;br&gt;10.0.0.1:80" style="outlineConnect=0;dashed=0;verticalLabelPosition=bottom;verticalAlign=top;align=center;html=1;shape=mxgraph.aws3.instance;fillColor=#F58534;gradientColor=none;" vertex="1" parent="1">
          <mxGeometry x="770" y="603.5" width="60" height="63" as="geometry" />
        </mxCell>
        <mxCell id="5FU5wbVfuIOVZ-LXfCbl-85" style="edgeStyle=orthogonalEdgeStyle;rounded=0;orthogonalLoop=1;jettySize=auto;html=1;" edge="1" source="5FU5wbVfuIOVZ-LXfCbl-86" target="5FU5wbVfuIOVZ-LXfCbl-79" parent="1">
          <mxGeometry relative="1" as="geometry">
            <Array as="points">
              <mxPoint x="720" y="732" />
              <mxPoint x="720" y="635" />
            </Array>
          </mxGeometry>
        </mxCell>
        <mxCell id="5FU5wbVfuIOVZ-LXfCbl-86" value="Service&amp;nbsp;C&lt;br&gt;10.0.11.5:82" style="outlineConnect=0;dashed=0;verticalLabelPosition=bottom;verticalAlign=top;align=center;html=1;shape=mxgraph.aws3.instance;fillColor=#F58534;gradientColor=none;" vertex="1" parent="1">
          <mxGeometry x="770" y="800" width="60" height="63" as="geometry" />
        </mxCell>
        <mxCell id="5FU5wbVfuIOVZ-LXfCbl-87" value="&lt;meta charset=&quot;utf-8&quot;&gt;&lt;span style=&quot;color: rgb(0, 0, 0); font-family: Helvetica; font-size: 12px; font-style: normal; font-variant-ligatures: normal; font-variant-caps: normal; font-weight: 400; letter-spacing: normal; orphans: 2; text-align: center; text-indent: 0px; text-transform: none; widows: 2; word-spacing: 0px; -webkit-text-stroke-width: 0px; background-color: rgb(251, 251, 251); text-decoration-thickness: initial; text-decoration-style: initial; text-decoration-color: initial; float: none; display: inline !important;&quot;&gt;10.0.11.5:82&lt;/span&gt;" style="text;strokeColor=none;fillColor=none;align=left;verticalAlign=middle;spacingLeft=4;spacingRight=4;overflow=hidden;points=[[0,0.5],[1,0.5]];portConstraint=eastwest;rotatable=0;whiteSpace=wrap;html=1;" vertex="1" parent="1">
          <mxGeometry x="590" y="700" width="90" height="30" as="geometry" />
        </mxCell>
        <mxCell id="5FU5wbVfuIOVZ-LXfCbl-88" value="Service C" style="text;strokeColor=none;fillColor=none;align=left;verticalAlign=middle;spacingLeft=4;spacingRight=4;overflow=hidden;points=[[0,0.5],[1,0.5]];portConstraint=eastwest;rotatable=0;whiteSpace=wrap;html=1;" vertex="1" parent="1">
          <mxGeometry x="494" y="700" width="90" height="30" as="geometry" />
        </mxCell>
        <mxCell id="5FU5wbVfuIOVZ-LXfCbl-89" value="Registry" style="text;strokeColor=none;fillColor=none;align=left;verticalAlign=middle;spacingLeft=4;spacingRight=4;overflow=hidden;points=[[0,0.5],[1,0.5]];portConstraint=eastwest;rotatable=0;whiteSpace=wrap;html=1;" vertex="1" parent="1">
          <mxGeometry x="630" y="603.5" width="80" height="30" as="geometry" />
        </mxCell>
        <mxCell id="5FU5wbVfuIOVZ-LXfCbl-90" value="" style="sketch=0;pointerEvents=1;shadow=0;dashed=0;html=1;strokeColor=none;labelPosition=center;verticalLabelPosition=bottom;verticalAlign=top;align=center;fillColor=#505050;shape=mxgraph.mscae.intune.update" vertex="1" parent="1">
          <mxGeometry x="810" y="790" width="28.8" height="30" as="geometry" />
        </mxCell>
      </root>
    </mxGraphModel>
  </diagram>
</mxfile>
